I have been around the pirate bay for a while now, but this is my first torrent, so please be kind. ;o)  

Just to warn you in advance, my upload speed is less than desirable.  So, if you can't handle that, you may want to wait until the file is more fully seeded. 

I have been unable to find torrents to this season of Solitary anywhere on the web, so I thought I would share. 

Enjoy!

-pixie

Format                           : AVI
Format/Info                      : Audio Video Interleave
File size                        : 553 MiB
Duration                         : 1h 6mn
Overall bit rate                 : 1 165 Kbps

Video
Format                           : xvid
Codec ID                         : xvid
Duration                         : 1h 6mn
Bit rate                         : 1 024 Kbps
Width                            : 640 pixels
Height                           : 360 pixels
Display aspect ratio             : 16:9
Frame rate                       : 29.970 fps
Bits/(Pixel*Frame)               : 0.148
Stream size                      : 486 MiB (88%)

Audio
ID                               : 1
Format                           : MPEG Audio
Format version                   : Version 1
Format profile                   : Layer 3
Mode                             : Joint stereo
Format_Settings_ModeExtension    : MS Stereo
Codec ID                         : 55
Codec ID/Hint                    : MP3
Duration                         : 1h 6mn
Bit rate mode                    : Constant
Bit rate                         : 128 Kbps
Channel(s)                       : 2 channels
Sampling rate                    : 48.0 KHz
Stream size                      : 60.7 MiB (11%)
Alignment                        : Aligned on interleaves
Interleave, duration             : 24 ms (0.72 video frame)
Writing library                  : LAME3.97 (beta)

IMDB: http://www.imdb.com/title/tt1553414/